<mxfile host="app.diagrams.net" modified="2022-11-30T03:12:32.245Z" agent="5.0 (Macintosh; Intel Mac OS X 10_15_7) AppleWebKit/537.36 (KHTML, like Gecko) Chrome/107.0.0.0 Safari/537.36" etag="coc_XeVmNUpqGd4bi8aZ" version="20.6.0" type="github">
  <diagram id="qQ0K1FfLcWqIdxxSCM_9" name="Page-1">
    <mxGraphModel dx="1229" dy="772" grid="1" gridSize="10" guides="1" tooltips="1" connect="1" arrows="1" fold="1" page="1" pageScale="1" pageWidth="850" pageHeight="1100" math="0" shadow="0">
      <root>
        <mxCell id="0" />
        <mxCell id="1" parent="0" />
        <mxCell id="ieltNHLjkWHX13YF6uj6-4" value="&lt;b&gt;&lt;font style=&quot;font-size: 20px&quot;&gt;START&lt;/font&gt;&lt;/b&gt;" style="ellipse;whiteSpace=wrap;html=1;fillColor=#FFD966;" parent="1" vertex="1">
          <mxGeometry x="390" y="91" width="90" height="50" as="geometry" />
        </mxCell>
        <mxCell id="ieltNHLjkWHX13YF6uj6-5" value="" style="ellipse;whiteSpace=wrap;html=1;aspect=fixed;labelBackgroundColor=#97D077;fontSize=20;fillColor=#97D077;gradientColor=none;" parent="1" vertex="1">
          <mxGeometry x="182.74" y="91" width="50" height="50" as="geometry" />
        </mxCell>
        <mxCell id="ieltNHLjkWHX13YF6uj6-6" value="" style="triangle;whiteSpace=wrap;html=1;rotation=-135;fillColor=#000000;" parent="1" vertex="1">
          <mxGeometry x="191.37" y="107.5" width="32.74" height="14.99" as="geometry" />
        </mxCell>
        <mxCell id="ieltNHLjkWHX13YF6uj6-7" value="" style="ellipse;whiteSpace=wrap;html=1;aspect=fixed;labelBackgroundColor=#97D077;fontSize=20;fillColor=#97D077;gradientColor=none;" parent="1" vertex="1">
          <mxGeometry x="250" y="90" width="50" height="50" as="geometry" />
        </mxCell>
        <mxCell id="ieltNHLjkWHX13YF6uj6-8" value="" style="triangle;whiteSpace=wrap;html=1;rotation=-315;fillColor=#000000;" parent="1" vertex="1">
          <mxGeometry x="258.6300000000001" y="108.50999999999999" width="32.74" height="14.99" as="geometry" />
        </mxCell>
        <mxCell id="ldYc2OaxbhMLsX1iwJZy-26" style="edgeStyle=orthogonalEdgeStyle;rounded=0;orthogonalLoop=1;jettySize=auto;html=1;exitX=0;exitY=0.75;exitDx=0;exitDy=0;strokeColor=#FF0000;strokeWidth=2;startArrow=none;startFill=0;" edge="1" parent="1" source="ieltNHLjkWHX13YF6uj6-12">
          <mxGeometry relative="1" as="geometry">
            <mxPoint x="320" y="288" as="targetPoint" />
          </mxGeometry>
        </mxCell>
        <mxCell id="ieltNHLjkWHX13YF6uj6-12" value="&lt;div style=&quot;text-align: left&quot;&gt;&lt;font color=&quot;#ffffff&quot; style=&quot;background-color: rgb(0 , 0 , 0)&quot;&gt;&lt;span style=&quot;font-family: &amp;quot;courier new&amp;quot;&quot;&gt;&lt;font size=&quot;1&quot;&gt;&lt;b&gt;&lt;span style=&quot;font-size: 13px&quot;&gt;&amp;nbsp;Обычная стирка&amp;nbsp; &amp;nbsp;&amp;nbsp;&lt;/span&gt;&lt;/b&gt;&lt;/font&gt;&lt;span style=&quot;font-size: 13px&quot;&gt;&amp;nbsp; &amp;nbsp; &amp;nbsp;&amp;nbsp;&lt;/span&gt;&lt;/span&gt;&lt;font style=&quot;font-size: 13px&quot; face=&quot;Courier New&quot;&gt;&lt;b&gt;1:20&amp;nbsp;&lt;/b&gt;&lt;/font&gt;&lt;/font&gt;&lt;/div&gt;&lt;div style=&quot;text-align: left&quot;&gt;&lt;font face=&quot;Courier New&quot;&gt;Замачивание:15мин&amp;nbsp;&amp;nbsp;&lt;/font&gt;&lt;span style=&quot;font-family: &amp;quot;courier new&amp;quot;&quot;&gt;Стирка:30мин&lt;/span&gt;&lt;/div&gt;&lt;div style=&quot;text-align: left&quot;&gt;&lt;span style=&quot;font-family: &amp;quot;courier new&amp;quot; ; text-align: center&quot;&gt;Температура:60С&amp;nbsp; &amp;nbsp;&amp;nbsp;&lt;/span&gt;&lt;span style=&quot;font-family: &amp;quot;courier new&amp;quot;&quot;&gt;Отжим :800об&lt;/span&gt;&lt;/div&gt;&lt;div style=&quot;text-align: left&quot;&gt;&lt;span style=&quot;font-family: &amp;quot;courier new&amp;quot; ; text-align: center&quot;&gt;Полоскание&amp;nbsp;:3х&amp;nbsp; &amp;nbsp;&lt;/span&gt;&lt;br&gt;&lt;/div&gt;" style="rounded=0;whiteSpace=wrap;html=1;align=center;" parent="1" vertex="1">
          <mxGeometry x="400" y="240" width="240" height="64" as="geometry" />
        </mxCell>
        <mxCell id="ldYc2OaxbhMLsX1iwJZy-30" style="edgeStyle=orthogonalEdgeStyle;rounded=0;orthogonalLoop=1;jettySize=auto;html=1;exitX=0;exitY=0.75;exitDx=0;exitDy=0;strokeColor=#FF0000;strokeWidth=2;startArrow=none;startFill=0;entryX=1;entryY=0.75;entryDx=0;entryDy=0;" edge="1" parent="1" source="ieltNHLjkWHX13YF6uj6-16" target="ieltNHLjkWHX13YF6uj6-54">
          <mxGeometry relative="1" as="geometry">
            <mxPoint x="320" y="496" as="targetPoint" />
          </mxGeometry>
        </mxCell>
        <mxCell id="ieltNHLjkWHX13YF6uj6-16" value="&lt;div style=&quot;text-align: left&quot;&gt;&lt;font color=&quot;#ffffff&quot; style=&quot;background-color: rgb(0 , 0 , 0)&quot;&gt;&lt;span style=&quot;font-family: &amp;quot;courier new&amp;quot;&quot;&gt;&lt;font size=&quot;1&quot;&gt;&lt;b&gt;&lt;span style=&quot;font-size: 13px&quot;&gt;&amp;nbsp;Интенсивная стирка&amp;nbsp;&lt;/span&gt;&lt;/b&gt;&lt;/font&gt;&lt;span style=&quot;font-size: 13px&quot;&gt;&amp;nbsp; &amp;nbsp; &amp;nbsp;&lt;/span&gt;&lt;/span&gt;&lt;font style=&quot;font-size: 13px&quot; face=&quot;Courier New&quot;&gt;&lt;b&gt;1:20&amp;nbsp;&lt;/b&gt;&lt;/font&gt;&lt;/font&gt;&lt;/div&gt;&lt;div style=&quot;text-align: left&quot;&gt;&lt;font face=&quot;Courier New&quot;&gt;Замачивание:15мин&amp;nbsp;&amp;nbsp;&lt;/font&gt;&lt;span style=&quot;font-family: &amp;quot;courier new&amp;quot;&quot;&gt;Стирка:30мин&lt;/span&gt;&lt;/div&gt;&lt;div style=&quot;text-align: left&quot;&gt;&lt;span style=&quot;font-family: &amp;quot;courier new&amp;quot; ; text-align: center&quot;&gt;Температура:90С&amp;nbsp; &amp;nbsp;&amp;nbsp;&lt;/span&gt;&lt;span style=&quot;font-family: &amp;quot;courier new&amp;quot;&quot;&gt;Отжим :800об&lt;/span&gt;&lt;/div&gt;&lt;div style=&quot;text-align: left&quot;&gt;&lt;span style=&quot;font-family: &amp;quot;courier new&amp;quot; ; text-align: center&quot;&gt;Полоскание&amp;nbsp;:4х&amp;nbsp; &amp;nbsp;&lt;/span&gt;&lt;br&gt;&lt;/div&gt;" style="rounded=0;whiteSpace=wrap;html=1;align=center;" parent="1" vertex="1">
          <mxGeometry x="400" y="480" width="240" height="64" as="geometry" />
        </mxCell>
        <mxCell id="ldYc2OaxbhMLsX1iwJZy-28" style="edgeStyle=orthogonalEdgeStyle;rounded=0;orthogonalLoop=1;jettySize=auto;html=1;exitX=0;exitY=0.75;exitDx=0;exitDy=0;strokeColor=#FF0000;strokeWidth=2;startArrow=none;startFill=0;entryX=1;entryY=0.75;entryDx=0;entryDy=0;" edge="1" parent="1" source="ieltNHLjkWHX13YF6uj6-18" target="ieltNHLjkWHX13YF6uj6-53">
          <mxGeometry relative="1" as="geometry">
            <mxPoint x="320" y="376" as="targetPoint" />
          </mxGeometry>
        </mxCell>
        <mxCell id="ieltNHLjkWHX13YF6uj6-18" value="&lt;div style=&quot;text-align: left&quot;&gt;&lt;font color=&quot;#ffffff&quot; style=&quot;background-color: rgb(0 , 0 , 0)&quot;&gt;&lt;span style=&quot;font-family: &amp;quot;courier new&amp;quot;&quot;&gt;&lt;font size=&quot;1&quot;&gt;&lt;b&gt;&lt;span style=&quot;font-size: 13px&quot;&gt;&amp;nbsp;Бережная стирка&amp;nbsp; &amp;nbsp;&lt;/span&gt;&lt;/b&gt;&lt;/font&gt;&lt;span style=&quot;font-size: 13px&quot;&gt;&amp;nbsp; &amp;nbsp; &amp;nbsp;&amp;nbsp;&lt;/span&gt;&lt;/span&gt;&lt;font style=&quot;font-size: 13px&quot; face=&quot;Courier New&quot;&gt;&lt;b&gt;1:40&amp;nbsp;&lt;/b&gt;&lt;/font&gt;&lt;/font&gt;&lt;/div&gt;&lt;div style=&quot;text-align: left&quot;&gt;&lt;font face=&quot;Courier New&quot;&gt;Замачивание:15мин&amp;nbsp;&amp;nbsp;&lt;/font&gt;&lt;span style=&quot;font-family: &amp;quot;courier new&amp;quot;&quot;&gt;Стирка:30мин&lt;/span&gt;&lt;/div&gt;&lt;div style=&quot;text-align: left&quot;&gt;&lt;span style=&quot;font-family: &amp;quot;courier new&amp;quot; ; text-align: center&quot;&gt;Температура:60С&amp;nbsp; &amp;nbsp;&amp;nbsp;&lt;/span&gt;&lt;span style=&quot;font-family: &amp;quot;courier new&amp;quot;&quot;&gt;Отжим :600об&lt;/span&gt;&lt;/div&gt;&lt;div style=&quot;text-align: left&quot;&gt;&lt;span style=&quot;font-family: &amp;quot;courier new&amp;quot; ; text-align: center&quot;&gt;Полоскание&amp;nbsp;:3х&amp;nbsp; &amp;nbsp;&lt;/span&gt;&lt;br&gt;&lt;/div&gt;" style="rounded=0;whiteSpace=wrap;html=1;align=center;" parent="1" vertex="1">
          <mxGeometry x="400" y="360" width="240" height="64" as="geometry" />
        </mxCell>
        <mxCell id="ldYc2OaxbhMLsX1iwJZy-32" style="edgeStyle=orthogonalEdgeStyle;rounded=0;orthogonalLoop=1;jettySize=auto;html=1;exitX=0;exitY=0.75;exitDx=0;exitDy=0;strokeColor=#FF0000;strokeWidth=2;startArrow=none;startFill=0;entryX=1;entryY=0.75;entryDx=0;entryDy=0;" edge="1" parent="1" source="ieltNHLjkWHX13YF6uj6-20" target="ieltNHLjkWHX13YF6uj6-60">
          <mxGeometry relative="1" as="geometry">
            <mxPoint x="320" y="616" as="targetPoint" />
          </mxGeometry>
        </mxCell>
        <mxCell id="ieltNHLjkWHX13YF6uj6-20" value="&lt;div style=&quot;text-align: left&quot;&gt;&lt;font color=&quot;#ffffff&quot; style=&quot;background-color: rgb(0 , 0 , 0)&quot;&gt;&lt;span style=&quot;font-family: &amp;quot;courier new&amp;quot;&quot;&gt;&lt;font size=&quot;1&quot;&gt;&lt;b&gt;&lt;span style=&quot;font-size: 13px&quot;&gt;&amp;nbsp;Полоскание&amp;nbsp; &amp;nbsp; &amp;nbsp; &amp;nbsp;&amp;nbsp;&lt;/span&gt;&lt;/b&gt;&lt;/font&gt;&lt;span style=&quot;font-size: 13px&quot;&gt;&amp;nbsp; &amp;nbsp; &amp;nbsp; 0:3&lt;/span&gt;&lt;/span&gt;&lt;font style=&quot;font-size: 13px&quot; face=&quot;Courier New&quot;&gt;&lt;b&gt;0&amp;nbsp;&lt;/b&gt;&lt;/font&gt;&lt;/font&gt;&lt;/div&gt;&lt;div style=&quot;text-align: left&quot;&gt;&lt;span style=&quot;font-family: &amp;quot;courier new&amp;quot; ; text-align: center&quot;&gt;Полоскание&amp;nbsp;:3х&amp;nbsp;&lt;/span&gt;&lt;br&gt;&lt;/div&gt;&lt;div style=&quot;text-align: left&quot;&gt;&lt;span style=&quot;font-family: &amp;quot;courier new&amp;quot;&quot;&gt;Отжим&amp;nbsp; &amp;nbsp; &amp;nbsp; :800об&lt;/span&gt;&lt;span style=&quot;font-family: &amp;quot;courier new&amp;quot; ; text-align: center&quot;&gt;&lt;br&gt;&lt;/span&gt;&lt;/div&gt;&lt;div style=&quot;text-align: left&quot;&gt;&lt;span style=&quot;font-family: &amp;quot;courier new&amp;quot;&quot;&gt;&lt;br&gt;&lt;/span&gt;&lt;/div&gt;" style="rounded=0;whiteSpace=wrap;html=1;align=center;" parent="1" vertex="1">
          <mxGeometry x="400" y="600" width="240" height="64" as="geometry" />
        </mxCell>
        <mxCell id="ldYc2OaxbhMLsX1iwJZy-34" style="edgeStyle=orthogonalEdgeStyle;rounded=0;orthogonalLoop=1;jettySize=auto;html=1;exitX=0;exitY=0.75;exitDx=0;exitDy=0;strokeColor=#FF0000;strokeWidth=2;startArrow=none;startFill=0;entryX=1;entryY=0.75;entryDx=0;entryDy=0;" edge="1" parent="1" source="ieltNHLjkWHX13YF6uj6-22" target="ieltNHLjkWHX13YF6uj6-63">
          <mxGeometry relative="1" as="geometry">
            <mxPoint x="320" y="736" as="targetPoint" />
          </mxGeometry>
        </mxCell>
        <mxCell id="ieltNHLjkWHX13YF6uj6-22" value="&lt;div style=&quot;text-align: left&quot;&gt;&lt;span style=&quot;font-family: &amp;#34;courier new&amp;#34; ; background-color: rgb(0 , 0 , 0)&quot;&gt;&lt;font color=&quot;#ffffff&quot;&gt;&lt;font size=&quot;1&quot;&gt;&lt;b&gt;&lt;span style=&quot;font-size: 13px&quot;&gt;&amp;nbsp;Отжим&amp;nbsp; &amp;nbsp; &amp;nbsp; &amp;nbsp; &amp;nbsp; &amp;nbsp;&lt;/span&gt;&lt;/b&gt;&lt;/font&gt;&lt;span style=&quot;font-size: 13px&quot;&gt;&amp;nbsp; &amp;nbsp; &amp;nbsp; &amp;nbsp;0:15&amp;nbsp;&lt;/span&gt;&lt;/font&gt;&lt;/span&gt;&lt;/div&gt;&lt;div style=&quot;text-align: left&quot;&gt;&lt;span style=&quot;font-family: &amp;#34;courier new&amp;#34;&quot;&gt;Отжим&amp;nbsp; &amp;nbsp; &amp;nbsp; :800об&lt;/span&gt;&lt;br&gt;&lt;/div&gt;&lt;div style=&quot;text-align: left&quot;&gt;&lt;span style=&quot;font-family: &amp;#34;courier new&amp;#34;&quot;&gt;&lt;br&gt;&lt;/span&gt;&lt;/div&gt;&lt;div style=&quot;text-align: left&quot;&gt;&lt;span style=&quot;font-family: &amp;#34;courier new&amp;#34;&quot;&gt;&lt;br&gt;&lt;/span&gt;&lt;/div&gt;" style="rounded=0;whiteSpace=wrap;html=1;align=center;" parent="1" vertex="1">
          <mxGeometry x="400" y="720" width="240" height="64" as="geometry" />
        </mxCell>
        <mxCell id="ieltNHLjkWHX13YF6uj6-47" value="&lt;b&gt;&lt;font style=&quot;font-size: 24px&quot; face=&quot;Verdana&quot;&gt;X&lt;/font&gt;&lt;/b&gt;" style="ellipse;whiteSpace=wrap;html=1;aspect=fixed;labelBackgroundColor=none;fontSize=23;fillColor=#FF0000;" parent="1" vertex="1">
          <mxGeometry x="120" y="89.99999999999999" width="50" height="50" as="geometry" />
        </mxCell>
        <mxCell id="ieltNHLjkWHX13YF6uj6-48" value="&lt;b&gt;&lt;font style=&quot;font-size: 17px ; line-height: 1&quot;&gt;Изм&lt;/font&gt;&lt;/b&gt;" style="ellipse;whiteSpace=wrap;html=1;aspect=fixed;labelBackgroundColor=none;fontFamily=Verdana;fontSize=24;fillColor=#6666FF;" parent="1" vertex="1">
          <mxGeometry x="320" y="90" width="50" height="50" as="geometry" />
        </mxCell>
        <mxCell id="ldYc2OaxbhMLsX1iwJZy-36" style="edgeStyle=orthogonalEdgeStyle;rounded=0;orthogonalLoop=1;jettySize=auto;html=1;exitX=0;exitY=0.75;exitDx=0;exitDy=0;strokeColor=#FF0000;strokeWidth=2;startArrow=none;startFill=0;entryX=1;entryY=0.75;entryDx=0;entryDy=0;" edge="1" parent="1" source="ieltNHLjkWHX13YF6uj6-69" target="ieltNHLjkWHX13YF6uj6-66">
          <mxGeometry relative="1" as="geometry">
            <mxPoint x="320" y="856" as="targetPoint" />
          </mxGeometry>
        </mxCell>
        <mxCell id="ieltNHLjkWHX13YF6uj6-69" value="&lt;div style=&quot;text-align: left&quot;&gt;&lt;span style=&quot;font-family: &amp;quot;courier new&amp;quot; ; background-color: rgb(0 , 0 , 0)&quot;&gt;&lt;font color=&quot;#ffffff&quot;&gt;&lt;font size=&quot;1&quot;&gt;&lt;b&gt;&lt;span style=&quot;font-size: 13px&quot;&gt;&amp;nbsp;Слив&amp;nbsp; &amp;nbsp; &amp;nbsp; &amp;nbsp; &amp;nbsp; &amp;nbsp;&amp;nbsp;&lt;/span&gt;&lt;/b&gt;&lt;/font&gt;&lt;span style=&quot;font-size: 13px&quot;&gt;&amp;nbsp; &amp;nbsp; &amp;nbsp; &amp;nbsp;0:02&amp;nbsp;&lt;/span&gt;&lt;/font&gt;&lt;/span&gt;&lt;/div&gt;&lt;div style=&quot;text-align: left&quot;&gt;&lt;br&gt;&lt;/div&gt;&lt;div style=&quot;text-align: left&quot;&gt;&lt;span style=&quot;font-family: &amp;quot;courier new&amp;quot;&quot;&gt;&lt;br&gt;&lt;/span&gt;&lt;/div&gt;&lt;div style=&quot;text-align: left&quot;&gt;&lt;span style=&quot;font-family: &amp;quot;courier new&amp;quot;&quot;&gt;&lt;br&gt;&lt;/span&gt;&lt;/div&gt;" style="rounded=0;whiteSpace=wrap;html=1;align=center;" parent="1" vertex="1">
          <mxGeometry x="400" y="840" width="240" height="64" as="geometry" />
        </mxCell>
        <mxCell id="ldYc2OaxbhMLsX1iwJZy-1" value="" style="group" vertex="1" connectable="0" parent="1">
          <mxGeometry x="80" y="240" width="360" height="80" as="geometry" />
        </mxCell>
        <mxCell id="ieltNHLjkWHX13YF6uj6-51" value="&lt;p style=&quot;line-height: 1&quot;&gt;&lt;/p&gt;&lt;div style=&quot;text-align: left;&quot;&gt;&lt;br&gt;&lt;/div&gt;&lt;p&gt;&lt;/p&gt;" style="rounded=0;whiteSpace=wrap;html=1;align=center;" parent="ldYc2OaxbhMLsX1iwJZy-1" vertex="1">
          <mxGeometry width="240" height="64" as="geometry" />
        </mxCell>
        <mxCell id="ieltNHLjkWHX13YF6uj6-52" value="&lt;font face=&quot;Verdana&quot; style=&quot;font-size: 20px;&quot;&gt;&lt;b&gt;1:20&lt;/b&gt;&lt;/font&gt;" style="rounded=0;whiteSpace=wrap;html=1;labelBackgroundColor=#FFFFFF;fontSize=16;fontColor=#000000;strokeColor=none;" parent="ldYc2OaxbhMLsX1iwJZy-1" vertex="1">
          <mxGeometry x="177.3913043478261" y="36" width="52.17391304347826" height="20" as="geometry" />
        </mxCell>
        <mxCell id="ieltNHLjkWHX13YF6uj6-55" value="&lt;font face=&quot;Verdana&quot; size=&quot;1&quot; style=&quot;&quot;&gt;&lt;b style=&quot;font-size: 20px;&quot;&gt;Обычная&lt;br&gt;стирка&lt;br&gt;&lt;/b&gt;&lt;/font&gt;" style="rounded=0;whiteSpace=wrap;html=1;labelBackgroundColor=#FFFFFF;fontSize=16;fontColor=#000000;strokeColor=none;align=left;" parent="ldYc2OaxbhMLsX1iwJZy-1" vertex="1">
          <mxGeometry x="10.434782608695652" y="12" width="104.34782608695652" height="40" as="geometry" />
        </mxCell>
        <mxCell id="ldYc2OaxbhMLsX1iwJZy-2" value="" style="group" vertex="1" connectable="0" parent="1">
          <mxGeometry x="80" y="360" width="360" height="80" as="geometry" />
        </mxCell>
        <mxCell id="ieltNHLjkWHX13YF6uj6-53" value="&lt;p style=&quot;line-height: 1&quot;&gt;&lt;/p&gt;&lt;div style=&quot;text-align: left ; font-size: 19px&quot;&gt;&lt;br&gt;&lt;/div&gt;&lt;p&gt;&lt;/p&gt;" style="rounded=0;whiteSpace=wrap;html=1;align=center;" parent="ldYc2OaxbhMLsX1iwJZy-2" vertex="1">
          <mxGeometry width="240" height="64" as="geometry" />
        </mxCell>
        <mxCell id="ieltNHLjkWHX13YF6uj6-56" value="&lt;font face=&quot;Verdana&quot; style=&quot;font-size: 20px;&quot;&gt;&lt;b&gt;1:50&lt;/b&gt;&lt;/font&gt;" style="rounded=0;whiteSpace=wrap;html=1;labelBackgroundColor=#FFFFFF;fontSize=16;fontColor=#000000;strokeColor=none;" parent="ldYc2OaxbhMLsX1iwJZy-2" vertex="1">
          <mxGeometry x="177.3913043478261" y="36" width="52.17391304347826" height="20" as="geometry" />
        </mxCell>
        <mxCell id="ieltNHLjkWHX13YF6uj6-57" value="&lt;font face=&quot;Verdana&quot; size=&quot;1&quot; style=&quot;&quot;&gt;&lt;b style=&quot;font-size: 20px;&quot;&gt;Бережная&lt;br&gt;&lt;div style=&quot;text-align: left;&quot;&gt;&lt;b&gt;стирка&lt;/b&gt;&lt;/div&gt;&lt;/b&gt;&lt;/font&gt;" style="rounded=0;whiteSpace=wrap;html=1;labelBackgroundColor=#FFFFFF;fontSize=16;fontColor=#000000;strokeColor=none;" parent="ldYc2OaxbhMLsX1iwJZy-2" vertex="1">
          <mxGeometry x="10.434782608695652" y="12" width="114.78260869565217" height="40" as="geometry" />
        </mxCell>
        <mxCell id="ldYc2OaxbhMLsX1iwJZy-3" value="" style="group" vertex="1" connectable="0" parent="1">
          <mxGeometry x="80" y="480" width="360" height="80" as="geometry" />
        </mxCell>
        <mxCell id="ieltNHLjkWHX13YF6uj6-54" value="&lt;p style=&quot;line-height: 1&quot;&gt;&lt;/p&gt;&lt;div style=&quot;text-align: left; font-size: 19px;&quot;&gt;&lt;br&gt;&lt;/div&gt;&lt;p&gt;&lt;/p&gt;" style="rounded=0;whiteSpace=wrap;html=1;align=center;" parent="ldYc2OaxbhMLsX1iwJZy-3" vertex="1">
          <mxGeometry width="240" height="64" as="geometry" />
        </mxCell>
        <mxCell id="ieltNHLjkWHX13YF6uj6-58" value="&lt;font face=&quot;Verdana&quot; style=&quot;font-size: 20px;&quot;&gt;&lt;b&gt;1:20&lt;/b&gt;&lt;/font&gt;" style="rounded=0;whiteSpace=wrap;html=1;labelBackgroundColor=#FFFFFF;fontSize=16;fontColor=#000000;strokeColor=none;" parent="ldYc2OaxbhMLsX1iwJZy-3" vertex="1">
          <mxGeometry x="177.3913043478261" y="36" width="52.17391304347826" height="20" as="geometry" />
        </mxCell>
        <mxCell id="ieltNHLjkWHX13YF6uj6-59" value="&lt;font face=&quot;Verdana&quot; size=&quot;1&quot; style=&quot;&quot;&gt;&lt;b style=&quot;font-size: 20px;&quot;&gt;Интенсивная&lt;br&gt;стирка&lt;br&gt;&lt;/b&gt;&lt;/font&gt;" style="rounded=0;whiteSpace=wrap;html=1;labelBackgroundColor=#FFFFFF;fontSize=16;fontColor=#000000;strokeColor=none;align=left;" parent="ldYc2OaxbhMLsX1iwJZy-3" vertex="1">
          <mxGeometry x="10.434782608695652" y="10" width="166.95652173913044" height="40" as="geometry" />
        </mxCell>
        <mxCell id="ldYc2OaxbhMLsX1iwJZy-4" value="" style="group" vertex="1" connectable="0" parent="1">
          <mxGeometry x="80" y="600" width="360" height="80" as="geometry" />
        </mxCell>
        <mxCell id="ieltNHLjkWHX13YF6uj6-60" value="&lt;p style=&quot;line-height: 1&quot;&gt;&lt;/p&gt;&lt;div style=&quot;text-align: left; font-size: 19px;&quot;&gt;&lt;br&gt;&lt;/div&gt;&lt;p&gt;&lt;/p&gt;" style="rounded=0;whiteSpace=wrap;html=1;align=center;" parent="ldYc2OaxbhMLsX1iwJZy-4" vertex="1">
          <mxGeometry width="240" height="64" as="geometry" />
        </mxCell>
        <mxCell id="ieltNHLjkWHX13YF6uj6-61" value="&lt;font face=&quot;Verdana&quot; style=&quot;font-size: 20px;&quot;&gt;&lt;b&gt;0:30&lt;/b&gt;&lt;/font&gt;" style="rounded=0;whiteSpace=wrap;html=1;labelBackgroundColor=#FFFFFF;fontSize=16;fontColor=#000000;strokeColor=none;" parent="ldYc2OaxbhMLsX1iwJZy-4" vertex="1">
          <mxGeometry x="177.3913043478261" y="36" width="52.17391304347826" height="20" as="geometry" />
        </mxCell>
        <mxCell id="ieltNHLjkWHX13YF6uj6-62" value="&lt;font face=&quot;Verdana&quot; size=&quot;1&quot; style=&quot;&quot;&gt;&lt;b style=&quot;font-size: 20px;&quot;&gt;Полоскание&lt;/b&gt;&lt;/font&gt;" style="rounded=0;whiteSpace=wrap;html=1;labelBackgroundColor=#FFFFFF;fontSize=16;fontColor=#000000;strokeColor=none;align=left;" parent="ldYc2OaxbhMLsX1iwJZy-4" vertex="1">
          <mxGeometry x="10.434782608695652" y="10" width="166.95652173913044" height="20" as="geometry" />
        </mxCell>
        <mxCell id="ldYc2OaxbhMLsX1iwJZy-5" value="" style="group" vertex="1" connectable="0" parent="1">
          <mxGeometry x="80" y="720" width="360" height="80" as="geometry" />
        </mxCell>
        <mxCell id="ieltNHLjkWHX13YF6uj6-63" value="&lt;p style=&quot;line-height: 1&quot;&gt;&lt;/p&gt;&lt;div style=&quot;text-align: left; font-size: 19px;&quot;&gt;&lt;br&gt;&lt;/div&gt;&lt;p&gt;&lt;/p&gt;" style="rounded=0;whiteSpace=wrap;html=1;align=center;" parent="ldYc2OaxbhMLsX1iwJZy-5" vertex="1">
          <mxGeometry width="240" height="64" as="geometry" />
        </mxCell>
        <mxCell id="ieltNHLjkWHX13YF6uj6-64" value="&lt;font face=&quot;Verdana&quot; style=&quot;font-size: 20px;&quot;&gt;&lt;b&gt;0:10&lt;/b&gt;&lt;/font&gt;" style="rounded=0;whiteSpace=wrap;html=1;labelBackgroundColor=#FFFFFF;fontSize=16;fontColor=#000000;strokeColor=none;" parent="ldYc2OaxbhMLsX1iwJZy-5" vertex="1">
          <mxGeometry x="177.3913043478261" y="36" width="52.17391304347826" height="20" as="geometry" />
        </mxCell>
        <mxCell id="ieltNHLjkWHX13YF6uj6-65" value="&lt;font face=&quot;Verdana&quot; size=&quot;1&quot; style=&quot;&quot;&gt;&lt;b style=&quot;font-size: 20px;&quot;&gt;Отжим&lt;/b&gt;&lt;/font&gt;" style="rounded=0;whiteSpace=wrap;html=1;labelBackgroundColor=#FFFFFF;fontSize=16;fontColor=#000000;strokeColor=none;align=left;" parent="ldYc2OaxbhMLsX1iwJZy-5" vertex="1">
          <mxGeometry x="10.434782608695652" y="10" width="156.52173913043478" height="20" as="geometry" />
        </mxCell>
        <mxCell id="ldYc2OaxbhMLsX1iwJZy-6" value="" style="group" vertex="1" connectable="0" parent="1">
          <mxGeometry x="80" y="840" width="360" height="80" as="geometry" />
        </mxCell>
        <mxCell id="ieltNHLjkWHX13YF6uj6-66" value="&lt;p style=&quot;line-height: 1&quot;&gt;&lt;/p&gt;&lt;div style=&quot;text-align: left; font-size: 19px;&quot;&gt;&lt;br&gt;&lt;/div&gt;&lt;p&gt;&lt;/p&gt;" style="rounded=0;whiteSpace=wrap;html=1;align=center;" parent="ldYc2OaxbhMLsX1iwJZy-6" vertex="1">
          <mxGeometry width="240" height="64" as="geometry" />
        </mxCell>
        <mxCell id="ieltNHLjkWHX13YF6uj6-67" value="&lt;font face=&quot;Verdana&quot; style=&quot;font-size: 20px;&quot;&gt;&lt;b&gt;0:02&lt;/b&gt;&lt;/font&gt;" style="rounded=0;whiteSpace=wrap;html=1;labelBackgroundColor=#FFFFFF;fontSize=16;fontColor=#000000;strokeColor=none;" parent="ldYc2OaxbhMLsX1iwJZy-6" vertex="1">
          <mxGeometry x="177.3913043478261" y="36" width="52.17391304347826" height="20" as="geometry" />
        </mxCell>
        <mxCell id="ieltNHLjkWHX13YF6uj6-68" value="&lt;font face=&quot;Verdana&quot; size=&quot;1&quot; style=&quot;&quot;&gt;&lt;b style=&quot;font-size: 20px;&quot;&gt;Слив&lt;/b&gt;&lt;/font&gt;" style="rounded=0;whiteSpace=wrap;html=1;labelBackgroundColor=#FFFFFF;fontSize=16;fontColor=#000000;strokeColor=none;align=left;" parent="ldYc2OaxbhMLsX1iwJZy-6" vertex="1">
          <mxGeometry x="10.434782608695652" y="10" width="156.52173913043478" height="20" as="geometry" />
        </mxCell>
        <mxCell id="ldYc2OaxbhMLsX1iwJZy-10" style="edgeStyle=orthogonalEdgeStyle;rounded=0;orthogonalLoop=1;jettySize=auto;html=1;exitX=0.5;exitY=1;exitDx=0;exitDy=0;entryX=0.5;entryY=0;entryDx=0;entryDy=0;strokeWidth=2;startArrow=classic;startFill=1;strokeColor=#00CC00;" edge="1" parent="1" source="ieltNHLjkWHX13YF6uj6-51" target="ieltNHLjkWHX13YF6uj6-53">
          <mxGeometry relative="1" as="geometry" />
        </mxCell>
        <mxCell id="ldYc2OaxbhMLsX1iwJZy-11" style="edgeStyle=orthogonalEdgeStyle;rounded=0;orthogonalLoop=1;jettySize=auto;html=1;exitX=0.5;exitY=1;exitDx=0;exitDy=0;entryX=0.5;entryY=0;entryDx=0;entryDy=0;strokeWidth=2;startArrow=classic;startFill=1;strokeColor=#00CC00;" edge="1" parent="1" source="ieltNHLjkWHX13YF6uj6-53" target="ieltNHLjkWHX13YF6uj6-54">
          <mxGeometry relative="1" as="geometry" />
        </mxCell>
        <mxCell id="ldYc2OaxbhMLsX1iwJZy-12" style="edgeStyle=orthogonalEdgeStyle;rounded=0;orthogonalLoop=1;jettySize=auto;html=1;exitX=0.5;exitY=1;exitDx=0;exitDy=0;entryX=0.5;entryY=0;entryDx=0;entryDy=0;strokeWidth=2;strokeColor=#00CC00;startArrow=classic;startFill=1;" edge="1" parent="1" source="ieltNHLjkWHX13YF6uj6-54" target="ieltNHLjkWHX13YF6uj6-60">
          <mxGeometry relative="1" as="geometry" />
        </mxCell>
        <mxCell id="ldYc2OaxbhMLsX1iwJZy-14" style="edgeStyle=orthogonalEdgeStyle;rounded=0;orthogonalLoop=1;jettySize=auto;html=1;exitX=0.5;exitY=1;exitDx=0;exitDy=0;entryX=0.5;entryY=0;entryDx=0;entryDy=0;startArrow=classic;startFill=1;strokeWidth=2;strokeColor=#00CC00;" edge="1" parent="1" source="ieltNHLjkWHX13YF6uj6-60" target="ieltNHLjkWHX13YF6uj6-63">
          <mxGeometry relative="1" as="geometry">
            <mxPoint x="200" y="688" as="targetPoint" />
          </mxGeometry>
        </mxCell>
        <mxCell id="ldYc2OaxbhMLsX1iwJZy-16" style="edgeStyle=orthogonalEdgeStyle;rounded=0;orthogonalLoop=1;jettySize=auto;html=1;exitX=0.5;exitY=1;exitDx=0;exitDy=0;entryX=0.5;entryY=0;entryDx=0;entryDy=0;strokeWidth=2;startArrow=classic;startFill=1;strokeColor=#00CC00;" edge="1" parent="1" source="ieltNHLjkWHX13YF6uj6-63" target="ieltNHLjkWHX13YF6uj6-66">
          <mxGeometry relative="1" as="geometry">
            <mxPoint x="200" y="808" as="targetPoint" />
          </mxGeometry>
        </mxCell>
        <mxCell id="ldYc2OaxbhMLsX1iwJZy-18" style="edgeStyle=orthogonalEdgeStyle;rounded=0;orthogonalLoop=1;jettySize=auto;html=1;exitX=0.5;exitY=1;exitDx=0;exitDy=0;entryX=0.5;entryY=0;entryDx=0;entryDy=0;startArrow=classic;startFill=1;strokeWidth=2;strokeColor=#00CC00;" edge="1" parent="1" source="ieltNHLjkWHX13YF6uj6-66" target="ieltNHLjkWHX13YF6uj6-51">
          <mxGeometry relative="1" as="geometry">
            <mxPoint x="-10" y="382" as="targetPoint" />
            <Array as="points">
              <mxPoint x="200" y="924" />
              <mxPoint x="60" y="924" />
              <mxPoint x="60" y="220" />
              <mxPoint x="200" y="220" />
            </Array>
          </mxGeometry>
        </mxCell>
        <mxCell id="ldYc2OaxbhMLsX1iwJZy-19" style="edgeStyle=orthogonalEdgeStyle;rounded=0;orthogonalLoop=1;jettySize=auto;html=1;exitX=1;exitY=0.25;exitDx=0;exitDy=0;entryX=0;entryY=0.25;entryDx=0;entryDy=0;strokeColor=#CCCC00;strokeWidth=2;startArrow=none;startFill=0;" edge="1" parent="1" source="ieltNHLjkWHX13YF6uj6-51" target="ieltNHLjkWHX13YF6uj6-12">
          <mxGeometry relative="1" as="geometry" />
        </mxCell>
        <mxCell id="ldYc2OaxbhMLsX1iwJZy-20" style="edgeStyle=orthogonalEdgeStyle;rounded=0;orthogonalLoop=1;jettySize=auto;html=1;exitX=1;exitY=0.25;exitDx=0;exitDy=0;entryX=0;entryY=0.25;entryDx=0;entryDy=0;strokeColor=#CCCC00;strokeWidth=2;startArrow=none;startFill=0;" edge="1" parent="1" source="ieltNHLjkWHX13YF6uj6-53" target="ieltNHLjkWHX13YF6uj6-18">
          <mxGeometry relative="1" as="geometry" />
        </mxCell>
        <mxCell id="ldYc2OaxbhMLsX1iwJZy-21" style="edgeStyle=orthogonalEdgeStyle;rounded=0;orthogonalLoop=1;jettySize=auto;html=1;exitX=1;exitY=0.25;exitDx=0;exitDy=0;entryX=0;entryY=0.25;entryDx=0;entryDy=0;strokeColor=#CCCC00;strokeWidth=2;startArrow=none;startFill=0;" edge="1" parent="1" source="ieltNHLjkWHX13YF6uj6-54" target="ieltNHLjkWHX13YF6uj6-16">
          <mxGeometry relative="1" as="geometry" />
        </mxCell>
        <mxCell id="ldYc2OaxbhMLsX1iwJZy-22" style="edgeStyle=orthogonalEdgeStyle;rounded=0;orthogonalLoop=1;jettySize=auto;html=1;exitX=1;exitY=0.25;exitDx=0;exitDy=0;entryX=0;entryY=0.25;entryDx=0;entryDy=0;strokeColor=#CCCC00;strokeWidth=2;startArrow=none;startFill=0;" edge="1" parent="1" source="ieltNHLjkWHX13YF6uj6-60" target="ieltNHLjkWHX13YF6uj6-20">
          <mxGeometry relative="1" as="geometry" />
        </mxCell>
        <mxCell id="ldYc2OaxbhMLsX1iwJZy-23" style="edgeStyle=orthogonalEdgeStyle;rounded=0;orthogonalLoop=1;jettySize=auto;html=1;exitX=1;exitY=0.25;exitDx=0;exitDy=0;entryX=0;entryY=0.25;entryDx=0;entryDy=0;strokeColor=#CCCC00;strokeWidth=2;startArrow=none;startFill=0;" edge="1" parent="1" source="ieltNHLjkWHX13YF6uj6-63" target="ieltNHLjkWHX13YF6uj6-22">
          <mxGeometry relative="1" as="geometry" />
        </mxCell>
        <mxCell id="ldYc2OaxbhMLsX1iwJZy-24" style="edgeStyle=orthogonalEdgeStyle;rounded=0;orthogonalLoop=1;jettySize=auto;html=1;exitX=1;exitY=0.25;exitDx=0;exitDy=0;entryX=0;entryY=0.25;entryDx=0;entryDy=0;strokeColor=#CCCC00;strokeWidth=2;startArrow=none;startFill=0;" edge="1" parent="1" source="ieltNHLjkWHX13YF6uj6-66" target="ieltNHLjkWHX13YF6uj6-69">
          <mxGeometry relative="1" as="geometry" />
        </mxCell>
      </root>
    </mxGraphModel>
  </diagram>
</mxfile>
